<svg aria-roledescription="mindmap" role="graphics-document document" viewBox="5 5 1010.184814453125 590.9429931640625" style="max-width: 1010.184814453125px;" xmlns="http://www.w3.org/2000/svg" width="100%" id="tmpMermaidElement6339"><style>#tmpMermaidElement {background: white;}#tmpMermaidElement6339{font-family:"trebuchet ms",verdana,arial,sans-serif;font-size:16px;fill:#333;}#tmpMermaidElement6339 .error-icon{fill:#552222;}#tmpMermaidElement6339 .error-text{fill:#552222;stroke:#552222;}#tmpMermaidElement6339 .edge-thickness-normal{stroke-width:2px;}#tmpMermaidElement6339 .edge-thickness-thick{stroke-width:3.5px;}#tmpMermaidElement6339 .edge-pattern-solid{stroke-dasharray:0;}#tmpMermaidElement6339 .edge-pattern-dashed{stroke-dasharray:3;}#tmpMermaidElement6339 .edge-pattern-dotted{stroke-dasharray:2;}#tmpMermaidElement6339 .marker{fill:#333333;stroke:#333333;}#tmpMermaidElement6339 .marker.cross{stroke:#333333;}#tmpMermaidElement6339 svg{font-family:"trebuchet ms",verdana,arial,sans-serif;font-size:16px;}#tmpMermaidElement6339 .edge{stroke-width:3;}#tmpMermaidElement6339 .section--1 rect,#tmpMermaidElement6339 .section--1 path,#tmpMermaidElement6339 .section--1 circle,#tmpMermaidElement6339 .section--1 polygon,#tmpMermaidElement6339 .section--1 path{fill:hsl(240, 100%, 76.2745098039%);}#tmpMermaidElement6339 .section--1 text{fill:#ffffff;}#tmpMermaidElement6339 .node-icon--1{font-size:40px;color:#ffffff;}#tmpMermaidElement6339 .section-edge--1{stroke:hsl(240, 100%, 76.2745098039%);}#tmpMermaidElement6339 .edge-depth--1{stroke-width:17;}#tmpMermaidElement6339 .section--1 line{stroke:hsl(60, 100%, 86.2745098039%);stroke-width:3;}#tmpMermaidElement6339 .disabled,#tmpMermaidElement6339 .disabled circle,#tmpMermaidElement6339 .disabled text{fill:lightgray;}#tmpMermaidElement6339 .disabled text{fill:#efefef;}#tmpMermaidElement6339 .section-0 rect,#tmpMermaidElement6339 .section-0 path,#tmpMermaidElement6339 .section-0 circle,#tmpMermaidElement6339 .section-0 polygon,#tmpMermaidElement6339 .section-0 path{fill:hsl(60, 100%, 73.5294117647%);}#tmpMermaidElement6339 .section-0 text{fill:black;}#tmpMermaidElement6339 .node-icon-0{font-size:40px;color:black;}#tmpMermaidElement6339 .section-edge-0{stroke:hsl(60, 100%, 73.5294117647%);}#tmpMermaidElement6339 .edge-depth-0{stroke-width:14;}#tmpMermaidElement6339 .section-0 line{stroke:hsl(240, 100%, 83.5294117647%);stroke-width:3;}#tmpMermaidElement6339 .disabled,#tmpMermaidElement6339 .disabled circle,#tmpMermaidElement6339 .disabled text{fill:lightgray;}#tmpMermaidElement6339 .disabled text{fill:#efefef;}#tmpMermaidElement6339 .section-1 rect,#tmpMermaidElement6339 .section-1 path,#tmpMermaidElement6339 .section-1 circle,#tmpMermaidElement6339 .section-1 polygon,#tmpMermaidElement6339 .section-1 path{fill:hsl(80, 100%, 76.2745098039%);}#tmpMermaidElement6339 .section-1 text{fill:black;}#tmpMermaidElement6339 .node-icon-1{font-size:40px;color:black;}#tmpMermaidElement6339 .section-edge-1{stroke:hsl(80, 100%, 76.2745098039%);}#tmpMermaidElement6339 .edge-depth-1{stroke-width:11;}#tmpMermaidElement6339 .section-1 line{stroke:hsl(260, 100%, 86.2745098039%);stroke-width:3;}#tmpMermaidElement6339 .disabled,#tmpMermaidElement6339 .disabled circle,#tmpMermaidElement6339 .disabled text{fill:lightgray;}#tmpMermaidElement6339 .disabled text{fill:#efefef;}#tmpMermaidElement6339 .section-2 rect,#tmpMermaidElement6339 .section-2 path,#tmpMermaidElement6339 .section-2 circle,#tmpMermaidElement6339 .section-2 polygon,#tmpMermaidElement6339 .section-2 path{fill:hsl(270, 100%, 76.2745098039%);}#tmpMermaidElement6339 .section-2 text{fill:#ffffff;}#tmpMermaidElement6339 .node-icon-2{font-size:40px;color:#ffffff;}#tmpMermaidElement6339 .section-edge-2{stroke:hsl(270, 100%, 76.2745098039%);}#tmpMermaidElement6339 .edge-depth-2{stroke-width:8;}#tmpMermaidElement6339 .section-2 line{stroke:hsl(90, 100%, 86.2745098039%);stroke-width:3;}#tmpMermaidElement6339 .disabled,#tmpMermaidElement6339 .disabled circle,#tmpMermaidElement6339 .disabled text{fill:lightgray;}#tmpMermaidElement6339 .disabled text{fill:#efefef;}#tmpMermaidElement6339 .section-3 rect,#tmpMermaidElement6339 .section-3 path,#tmpMermaidElement6339 .section-3 circle,#tmpMermaidElement6339 .section-3 polygon,#tmpMermaidElement6339 .section-3 path{fill:hsl(300, 100%, 76.2745098039%);}#tmpMermaidElement6339 .section-3 text{fill:black;}#tmpMermaidElement6339 .node-icon-3{font-size:40px;color:black;}#tmpMermaidElement6339 .section-edge-3{stroke:hsl(300, 100%, 76.2745098039%);}#tmpMermaidElement6339 .edge-depth-3{stroke-width:5;}#tmpMermaidElement6339 .section-3 line{stroke:hsl(120, 100%, 86.2745098039%);stroke-width:3;}#tmpMermaidElement6339 .disabled,#tmpMermaidElement6339 .disabled circle,#tmpMermaidElement6339 .disabled text{fill:lightgray;}#tmpMermaidElement6339 .disabled text{fill:#efefef;}#tmpMermaidElement6339 .section-4 rect,#tmpMermaidElement6339 .section-4 path,#tmpMermaidElement6339 .section-4 circle,#tmpMermaidElement6339 .section-4 polygon,#tmpMermaidElement6339 .section-4 path{fill:hsl(330, 100%, 76.2745098039%);}#tmpMermaidElement6339 .section-4 text{fill:black;}#tmpMermaidElement6339 .node-icon-4{font-size:40px;color:black;}#tmpMermaidElement6339 .section-edge-4{stroke:hsl(330, 100%, 76.2745098039%);}#tmpMermaidElement6339 .edge-depth-4{stroke-width:2;}#tmpMermaidElement6339 .section-4 line{stroke:hsl(150, 100%, 86.2745098039%);stroke-width:3;}#tmpMermaidElement6339 .disabled,#tmpMermaidElement6339 .disabled circle,#tmpMermaidElement6339 .disabled text{fill:lightgray;}#tmpMermaidElement6339 .disabled text{fill:#efefef;}#tmpMermaidElement6339 .section-5 rect,#tmpMermaidElement6339 .section-5 path,#tmpMermaidElement6339 .section-5 circle,#tmpMermaidElement6339 .section-5 polygon,#tmpMermaidElement6339 .section-5 path{fill:hsl(0, 100%, 76.2745098039%);}#tmpMermaidElement6339 .section-5 text{fill:black;}#tmpMermaidElement6339 .node-icon-5{font-size:40px;color:black;}#tmpMermaidElement6339 .section-edge-5{stroke:hsl(0, 100%, 76.2745098039%);}#tmpMermaidElement6339 .edge-depth-5{stroke-width:-1;}#tmpMermaidElement6339 .section-5 line{stroke:hsl(180, 100%, 86.2745098039%);stroke-width:3;}#tmpMermaidElement6339 .disabled,#tmpMermaidElement6339 .disabled circle,#tmpMermaidElement6339 .disabled text{fill:lightgray;}#tmpMermaidElement6339 .disabled text{fill:#efefef;}#tmpMermaidElement6339 .section-6 rect,#tmpMermaidElement6339 .section-6 path,#tmpMermaidElement6339 .section-6 circle,#tmpMermaidElement6339 .section-6 polygon,#tmpMermaidElement6339 .section-6 path{fill:hsl(30, 100%, 76.2745098039%);}#tmpMermaidElement6339 .section-6 text{fill:black;}#tmpMermaidElement6339 .node-icon-6{font-size:40px;color:black;}#tmpMermaidElement6339 .section-edge-6{stroke:hsl(30, 100%, 76.2745098039%);}#tmpMermaidElement6339 .edge-depth-6{stroke-width:-4;}#tmpMermaidElement6339 .section-6 line{stroke:hsl(210, 100%, 86.2745098039%);stroke-width:3;}#tmpMermaidElement6339 .disabled,#tmpMermaidElement6339 .disabled circle,#tmpMermaidElement6339 .disabled text{fill:lightgray;}#tmpMermaidElement6339 .disabled text{fill:#efefef;}#tmpMermaidElement6339 .section-7 rect,#tmpMermaidElement6339 .section-7 path,#tmpMermaidElement6339 .section-7 circle,#tmpMermaidElement6339 .section-7 polygon,#tmpMermaidElement6339 .section-7 path{fill:hsl(90, 100%, 76.2745098039%);}#tmpMermaidElement6339 .section-7 text{fill:black;}#tmpMermaidElement6339 .node-icon-7{font-size:40px;color:black;}#tmpMermaidElement6339 .section-edge-7{stroke:hsl(90, 100%, 76.2745098039%);}#tmpMermaidElement6339 .edge-depth-7{stroke-width:-7;}#tmpMermaidElement6339 .section-7 line{stroke:hsl(270, 100%, 86.2745098039%);stroke-width:3;}#tmpMermaidElement6339 .disabled,#tmpMermaidElement6339 .disabled circle,#tmpMermaidElement6339 .disabled text{fill:lightgray;}#tmpMermaidElement6339 .disabled text{fill:#efefef;}#tmpMermaidElement6339 .section-8 rect,#tmpMermaidElement6339 .section-8 path,#tmpMermaidElement6339 .section-8 circle,#tmpMermaidElement6339 .section-8 polygon,#tmpMermaidElement6339 .section-8 path{fill:hsl(150, 100%, 76.2745098039%);}#tmpMermaidElement6339 .section-8 text{fill:black;}#tmpMermaidElement6339 .node-icon-8{font-size:40px;color:black;}#tmpMermaidElement6339 .section-edge-8{stroke:hsl(150, 100%, 76.2745098039%);}#tmpMermaidElement6339 .edge-depth-8{stroke-width:-10;}#tmpMermaidElement6339 .section-8 line{stroke:hsl(330, 100%, 86.2745098039%);stroke-width:3;}#tmpMermaidElement6339 .disabled,#tmpMermaidElement6339 .disabled circle,#tmpMermaidElement6339 .disabled text{fill:lightgray;}#tmpMermaidElement6339 .disabled text{fill:#efefef;}#tmpMermaidElement6339 .section-9 rect,#tmpMermaidElement6339 .section-9 path,#tmpMermaidElement6339 .section-9 circle,#tmpMermaidElement6339 .section-9 polygon,#tmpMermaidElement6339 .section-9 path{fill:hsl(180, 100%, 76.2745098039%);}#tmpMermaidElement6339 .section-9 text{fill:black;}#tmpMermaidElement6339 .node-icon-9{font-size:40px;color:black;}#tmpMermaidElement6339 .section-edge-9{stroke:hsl(180, 100%, 76.2745098039%);}#tmpMermaidElement6339 .edge-depth-9{stroke-width:-13;}#tmpMermaidElement6339 .section-9 line{stroke:hsl(0, 100%, 86.2745098039%);stroke-width:3;}#tmpMermaidElement6339 .disabled,#tmpMermaidElement6339 .disabled circle,#tmpMermaidElement6339 .disabled text{fill:lightgray;}#tmpMermaidElement6339 .disabled text{fill:#efefef;}#tmpMermaidElement6339 .section-10 rect,#tmpMermaidElement6339 .section-10 path,#tmpMermaidElement6339 .section-10 circle,#tmpMermaidElement6339 .section-10 polygon,#tmpMermaidElement6339 .section-10 path{fill:hsl(210, 100%, 76.2745098039%);}#tmpMermaidElement6339 .section-10 text{fill:black;}#tmpMermaidElement6339 .node-icon-10{font-size:40px;color:black;}#tmpMermaidElement6339 .section-edge-10{stroke:hsl(210, 100%, 76.2745098039%);}#tmpMermaidElement6339 .edge-depth-10{stroke-width:-16;}#tmpMermaidElement6339 .section-10 line{stroke:hsl(30, 100%, 86.2745098039%);stroke-width:3;}#tmpMermaidElement6339 .disabled,#tmpMermaidElement6339 .disabled circle,#tmpMermaidElement6339 .disabled text{fill:lightgray;}#tmpMermaidElement6339 .disabled text{fill:#efefef;}#tmpMermaidElement6339 .section-root rect,#tmpMermaidElement6339 .section-root path,#tmpMermaidElement6339 .section-root circle,#tmpMermaidElement6339 .section-root polygon{fill:hsl(240, 100%, 46.2745098039%);}#tmpMermaidElement6339 .section-root text{fill:#ffffff;}#tmpMermaidElement6339 .icon-container{height:100%;display:flex;justify-content:center;align-items:center;}#tmpMermaidElement6339 .edge{fill:none;}#tmpMermaidElement6339 .mindmap-node-label{dy:1em;alignment-baseline:middle;text-anchor:middle;dominant-baseline:middle;text-align:center;}#tmpMermaidElement6339 :root{--mermaid-font-family:"trebuchet ms",verdana,arial,sans-serif;}</style><g></g><g></g><g class="mindmap-edges"><path class="edge section-edge-0 edge-depth-2" d="M 605.7670784509534,111.82821869703645 L 579.7092413632693,81.64656265210866 L553.6514042755853,51.46490660718085"></path><path class="edge section-edge-0 edge-depth-2" d="M 600.7827860702747,125.70189181262282 L 557.2656839760525,133.11760820525993 L513.7485818818303,140.53332459789704"></path><path class="edge section-edge-0 edge-depth-2" d="M 623.0524464111837,110.18179548111155 L 640.8328353445638,79.29103908868225 L658.6132242779439,48.40028269625296"></path><path class="edge section-edge-0 edge-depth-1" d="M 664.8496964872579,198.60961943068668 L 644.311817569591,167.17456684038726 L623.773938651924,135.73951425008784"></path><path class="edge section-edge-0 edge-depth-2" d="M 776.308998438327,120.23799919253423 L 787.863412941246,87.97973585170902 L799.417827444165,55.7214725108838"></path><path class="edge section-edge-0 edge-depth-2" d="M 786.0936921945784,132.19342032893732 L 835.621462714611,124.96571880796105 L885.1492332346436,117.73801728698479"></path><path class="edge section-edge-0 edge-depth-1" d="M 684.8690484251987,201.92557708990324 L 722.1524598454541,172.7632587927234 L759.4358712657096,143.60094049554357"></path><path class="edge section-edge-0 edge-depth-2" d="M 807.516807666452,244.41137450450688 L 861.1840732196199,235.66837522840504 L914.8513387727878,226.9253759523032"></path><path class="edge section-edge-0 edge-depth-1" d="M 687.4293573830064,215.45068201196617 L 732.8829970259542,228.99515107714106 L778.336636668902,242.53962014231595"></path><path class="edge section-edge-0 edge-depth-0" d="M 621.9134193627751,289.4459974559759 L 643.3816941946051,256.5853335447583 L664.849969026435,223.72466963354083"></path><path class="edge section-edge-1 edge-depth-2" d="M 850.1863778419691,378.875141932612 L 900.4483466102927,397.82795995981803 L950.7103153786162,416.78077798702407"></path><path class="edge section-edge-1 edge-depth-2" d="M 850.1799558118021,368.27325088927637 L 901.3222244673558,348.91768834140146 L952.4644931229095,329.56212579352655"></path><path class="edge section-edge-1 edge-depth-1" d="M 707.559425175344,387.46028999925943 L 764.3985421532752,381.32621956437004 L821.2376591312064,375.19214912948064"></path><path class="edge section-edge-1 edge-depth-2" d="M 791.6924311963032,476.98463888673894 L 832.1253584880457,496.17425373180106 L872.5582857797881,515.3638685768632"></path><path class="edge section-edge-1 edge-depth-2" d="M 777.7302667867469,485.54753970416914 L 776.8395888607029,518.0480833013697 L775.9489109346588,550.5486268985703"></path><path class="edge section-edge-1 edge-depth-1" d="M 703.5043168229674,399.4185294824759 L 735.3936037489689,429.8114560767734 L767.2828906749703,460.20438267107096"></path><path class="edge section-edge-1 edge-depth-2" d="M 577.3969638789422,468.6428827916018 L 508.215891604279,484.2102549126156 L439.0348193296158,499.7776270336294"></path><path class="edge section-edge-1 edge-depth-2" d="M 593.2902163231723,480.2969269293956 L 596.0456863159345,513.0056446055033 L598.8011563086966,545.714362281611"></path><path class="edge section-edge-1 edge-depth-1" d="M 680.6928780370579,398.1318840667484 L 642.3385280412591,427.2098071833186 L603.9841780454603,456.28773029988884"></path><path class="edge section-edge-1 edge-depth-0" d="M 623.7844771463068,313.1163221943728 L 653.1776978773452,345.5366772222126 L682.5709186083835,377.95703225005235"></path><path class="edge section-edge-2 edge-depth-2" d="M 349.06902324745715,191.96567837635732 L 294.3887433208223,167.58726154254228 L239.70846339418748,143.20884470872724"></path><path class="edge section-edge-2 edge-depth-2" d="M 362.6832199448159,183.07391269652211 L 362.49666541640744,150.49560959219744 L362.310110887999,117.91730648787276"></path><path class="edge section-edge-2 edge-depth-1" d="M 419.87553183195496,270.4642643522362 L 395.96744707738014,240.15732866353898 L372.0593623228053,209.85039297484167"></path><path class="edge section-edge-2 edge-depth-2" d="M 356.8805456477438,363.0877330695277 L 419.6074950896883,375.31161798292806 L482.3344445316328,387.5355028963284"></path><path class="edge section-edge-2 edge-depth-2" d="M 329.79489038760005,368.71363385919955 L 290.2222409517001,395.90622973902657 L250.64959151580013,423.0988256188536"></path><path class="edge section-edge-2 edge-depth-1" d="M 417.9953358871987,292.2520428320254 L 385.6616414743417,321.2297887392767 L353.32794706148474,350.2075346465281"></path><path class="edge section-edge-2 edge-depth-2" d="M 241.71118555736223,284.7618930914738 L 184.40255204287678,310.2654462290128 L127.09391852839133,335.76899936655184"></path><path class="edge section-edge-2 edge-depth-2" d="M 241.34235041797652,273.4720134448333 L 174.55927454317487,248.8374119719879 L107.77619866837321,224.20281049914252"></path><path class="edge section-edge-2 edge-depth-1" d="M 414.1689595278882,281.9321841409362 L 342.2906022819694,280.45210393133095 L270.41224503605065,278.9720237217257"></path><path class="edge section-edge-2 edge-depth-0" d="M 598.7946539067761,300.4064063306074 L 521.4375782430471,292.1223010715602 L444.0805025793182,283.83819581251294"></path></g><g class="mindmap-nodes"><g transform="translate(538.3421885085053, 281.6036115861067)" class="mindmap-node section--1 section-root"><g transform="translate(75.3671875, 20.4)"><circle r="75.3671875" class="node-bkg node-circle" id="node-0"></circle></g><g transform="translate(75.3671875, 5)" text-anchor="middle" dominant-baseline="middle" alignment-baseline="middle" dy="1em"><g><rect class="background"></rect><text y="-10.1"><tspan dy="1.1em" y="-0.1em" x="0" class="text-outer-tspan"><tspan font-weight="normal" class="text-inner-tspan" font-style="normal">Scratch</tspan><tspan font-weight="normal" class="text-inner-tspan" font-style="normal"> Mindmap</tspan></tspan></text></g></g></g><g transform="translate(639.9602623807049, 190.76705550341)" class="mindmap-node section-0"><g><path d="M0 35.8 v-30.799999999999997 q0,-5 5,-5 h56.1875 q5,0 5,5 v35.8 H0 Z" class="node-bkg node-no-border" id="node-1"></path><line y2="40.8" x2="66.1875" y1="40.8" x1="0" class="node-line-0"></line></g><g transform="translate(33.09375, 5)" text-anchor="middle" dominant-baseline="middle" alignment-baseline="middle" dy="1em"><g><rect class="background"></rect><text y="-10.1"><tspan dy="1.1em" y="-0.1em" x="0" class="text-outer-tspan"><tspan font-weight="normal" class="text-inner-tspan" font-style="normal">Basics</tspan></tspan></text></g></g></g><g transform="translate(581.7180602584771, 102.7820781773645)" class="mindmap-node section-0"><g><path d="M0 35.8 v-30.799999999999997 q0,-5 5,-5 h57.703125 q5,0 5,5 v35.8 H0 Z" class="node-bkg node-no-border" id="node-2"></path><line y2="40.8" x2="67.703125" y1="40.8" x1="0" class="node-line-0"></line></g><g transform="translate(33.8515625, 5)" text-anchor="middle" dominant-baseline="middle" alignment-baseline="middle" dy="1em"><g><rect class="background"></rect><text y="-10.1"><tspan dy="1.1em" y="-0.1em" x="0" class="text-outer-tspan"><tspan font-weight="normal" class="text-inner-tspan" font-style="normal">Blocks</tspan></tspan></text></g></g></g><g transform="translate(507.24729746806156, 19.711047126852804)" class="mindmap-node section-0"><g><path d="M0 35.8 v-30.799999999999997 q0,-5 5,-5 h63.203125 q5,0 5,5 v35.8 H0 Z" class="node-bkg node-no-border" id="node-3"></path><line y2="40.8" x2="73.203125" y1="40.8" x1="0" class="node-line-0"></line></g><g transform="translate(36.6015625, 5)" text-anchor="middle" dominant-baseline="middle" alignment-baseline="middle" dy="1em"><g><rect class="background"></rect><text y="-10.1"><tspan dy="1.1em" y="-0.1em" x="0" class="text-outer-tspan"><tspan font-weight="normal" class="text-inner-tspan" font-style="normal">Motion</tspan></tspan></text></g></g></g><g transform="translate(467.14143269362796, 122.65313823315535)" class="mindmap-node section-0"><g><path d="M0 35.8 v-30.799999999999997 q0,-5 5,-5 h53.640625 q5,0 5,5 v35.8 H0 Z" class="node-bkg node-no-border" id="node-4"></path><line y2="40.8" x2="63.640625" y1="40.8" x1="0" class="node-line-0"></line></g><g transform="translate(31.8203125, 5)" text-anchor="middle" dominant-baseline="middle" alignment-baseline="middle" dy="1em"><g><rect class="background"></rect><text y="-10.1"><tspan dy="1.1em" y="-0.1em" x="0" class="text-outer-tspan"><tspan font-weight="normal" class="text-inner-tspan" font-style="normal">Looks</tspan></tspan></text></g></g></g><g transform="translate(632.1897979306506, 15)" class="mindmap-node section-0"><g><path d="M0 35.8 v-30.799999999999997 q0,-5 5,-5 h57.8125 q5,0 5,5 v35.8 H0 Z" class="node-bkg node-no-border" id="node-5"></path><line y2="40.8" x2="67.8125" y1="40.8" x1="0" class="node-line-0"></line></g><g transform="translate(33.90625, 5)" text-anchor="middle" dominant-baseline="middle" alignment-baseline="middle" dy="1em"><g><rect class="background"></rect><text y="-10.1"><tspan dy="1.1em" y="-0.1em" x="0" class="text-outer-tspan"><tspan font-weight="normal" class="text-inner-tspan" font-style="normal">Sound</tspan></tspan></text></g></g></g><g transform="translate(735.5243448102034, 113.9594620820368)" class="mindmap-node section-0"><g><path d="M0 35.8 v-30.799999999999997 q0,-5 5,-5 h61.453125 q5,0 5,5 v35.8 H0 Z" class="node-bkg node-no-border" id="node-6"></path><line y2="40.8" x2="71.453125" y1="40.8" x1="0" class="node-line-0"></line></g><g transform="translate(35.7265625, 5)" text-anchor="middle" dominant-baseline="middle" alignment-baseline="middle" dy="1em"><g><rect class="background"></rect><text y="-10.1"><tspan dy="1.1em" y="-0.1em" x="0" class="text-outer-tspan"><tspan font-weight="normal" class="text-inner-tspan" font-style="normal">Sprites</tspan></tspan></text></g></g></g><g transform="translate(757.3431060722886, 21.20000962138124)" class="mindmap-node section-0"><g><path d="M0 35.8 v-30.799999999999997 q0,-5 5,-5 h84.265625 q5,0 5,5 v35.8 H0 Z" class="node-bkg node-no-border" id="node-7"></path><line y2="40.8" x2="94.265625" y1="40.8" x1="0" class="node-line-0"></line></g><g transform="translate(47.1328125, 5)" text-anchor="middle" dominant-baseline="middle" alignment-baseline="middle" dy="1em"><g><rect class="background"></rect><text y="-10.1"><tspan dy="1.1em" y="-0.1em" x="0" class="text-outer-tspan"><tspan font-weight="normal" class="text-inner-tspan" font-style="normal">Costumes</tspan></tspan></text></g></g></g><g transform="translate(862.2732681190186, 95.1719755338853)" class="mindmap-node section-0"><g><path d="M0 35.8 v-30.799999999999997 q0,-5 5,-5 h65.4375 q5,0 5,5 v35.8 H0 Z" class="node-bkg node-no-border" id="node-8"></path><line y2="40.8" x2="75.4375" y1="40.8" x1="0" class="node-line-0"></line></g><g transform="translate(37.71875, 5)" text-anchor="middle" dominant-baseline="middle" alignment-baseline="middle" dy="1em"><g><rect class="background"></rect><text y="-10.1"><tspan dy="1.1em" y="-0.1em" x="0" class="text-outer-tspan"><tspan font-weight="normal" class="text-inner-tspan" font-style="normal">Sounds</tspan></tspan></text></g></g></g><g transform="translate(758.3760441712035, 226.4232466508721)" class="mindmap-node section-0"><g><path d="M0 35.8 v-30.799999999999997 q0,-5 5,-5 h58.671875 q5,0 5,5 v35.8 H0 Z" class="node-bkg node-no-border" id="node-9"></path><line y2="40.8" x2="68.671875" y1="40.8" x1="0" class="node-line-0"></line></g><g transform="translate(34.3359375, 5)" text-anchor="middle" dominant-baseline="middle" alignment-baseline="middle" dy="1em"><g><rect class="background"></rect><text y="-10.1"><tspan dy="1.1em" y="-0.1em" x="0" class="text-outer-tspan"><tspan font-weight="normal" class="text-inner-tspan" font-style="normal">Stages</tspan></tspan></text></g></g></g><g transform="translate(880.3202272680363, 204.11350380593797)" class="mindmap-node section-0"><g><path d="M0 35.8 v-30.799999999999997 q0,-5 5,-5 h88.671875 q5,0 5,5 v35.8 H0 Z" class="node-bkg node-no-border" id="node-10"></path><line y2="40.8" x2="98.671875" y1="40.8" x1="0" class="node-line-0"></line></g><g transform="translate(49.3359375, 5)" text-anchor="middle" dominant-baseline="middle" alignment-baseline="middle" dy="1em"><g><rect class="background"></rect><text y="-10.1"><tspan dy="1.1em" y="-0.1em" x="0" class="text-outer-tspan"><tspan font-weight="normal" class="text-inner-tspan" font-style="normal">Backdrops</tspan></tspan></text></g></g></g><g transform="translate(648.0053947461851, 368.6697428583185)" class="mindmap-node section-1"><g><path d="M0 35.8 v-30.799999999999997 q0,-5 5,-5 h79.28125 q5,0 5,5 v35.8 H0 Z" class="node-bkg node-no-border" id="node-11"></path><line y2="40.8" x2="89.28125" y1="40.8" x1="0" class="node-line-1"></line></g><g transform="translate(44.640625, 5)" text-anchor="middle" dominant-baseline="middle" alignment-baseline="middle" dy="1em"><g><rect class="background"></rect><text y="-10.1"><tspan dy="1.1em" y="-0.1em" x="0" class="text-outer-tspan"><tspan font-weight="normal" class="text-inner-tspan" font-style="normal">Concepts</tspan></tspan></text></g></g></g><g transform="translate(796.0299708103654, 353.1826962704216)" class="mindmap-node section-1"><g><path d="M0 35.8 v-30.799999999999997 q0,-5 5,-5 h70.2421875 q5,0 5,5 v35.8 H0 Z" class="node-bkg node-no-border" id="node-12"></path><line y2="40.8" x2="80.2421875" y1="40.8" x1="0" class="node-line-1"></line></g><g transform="translate(40.12109375, 5)" text-anchor="middle" dominant-baseline="middle" alignment-baseline="middle" dy="1em"><g><rect class="background"></rect><text y="-10.1"><tspan dy="1.1em" y="-0.1em" x="0" class="text-outer-tspan"><tspan font-weight="normal" class="text-inner-tspan" font-style="normal">Looping</tspan></tspan></text></g></g></g><g transform="translate(928.48390991022, 401.6732236492145)" class="mindmap-node section-1"><g><path d="M0 35.8 v-30.799999999999997 q0,-5 5,-5 h62.5234375 q5,0 5,5 v35.8 H0 Z" class="node-bkg node-no-border" id="node-13"></path><line y2="40.8" x2="72.5234375" y1="40.8" x1="0" class="node-line-1"></line></g><g transform="translate(36.26171875, 5)" text-anchor="middle" dominant-baseline="middle" alignment-baseline="middle" dy="1em"><g><rect class="background"></rect><text y="-10.1"><tspan dy="1.1em" y="-0.1em" x="0" class="text-outer-tspan"><tspan font-weight="normal" class="text-inner-tspan" font-style="normal">Repeat</tspan></tspan></text></g></g></g><g transform="translate(927.8019781243462, 303.85268041238135)" class="mindmap-node section-1"><g><path d="M0 35.8 v-30.799999999999997 q0,-5 5,-5 h67.3828125 q5,0 5,5 v35.8 H0 Z" class="node-bkg node-no-border" id="node-14"></path><line y2="40.8" x2="77.3828125" y1="40.8" x1="0" class="node-line-1"></line></g><g transform="translate(38.69140625, 5)" text-anchor="middle" dominant-baseline="middle" alignment-baseline="middle" dy="1em"><g><rect class="background"></rect><text y="-10.1"><tspan dy="1.1em" y="-0.1em" x="0" class="text-outer-tspan"><tspan font-weight="normal" class="text-inner-tspan" font-style="normal">Forever</tspan></tspan></text></g></g></g><g transform="translate(680.8365002517527, 450.1531692952284)" class="mindmap-node section-1"><g><path d="M0 35.8 v-30.799999999999997 q0,-5 5,-5 h184.609375 q5,0 5,5 v35.8 H0 Z" class="node-bkg node-no-border" id="node-15"></path><line y2="40.8" x2="194.609375" y1="40.8" x1="0" class="node-line-1"></line></g><g transform="translate(97.3046875, 5)" text-anchor="middle" dominant-baseline="middle" alignment-baseline="middle" dy="1em"><g><rect class="background"></rect><text y="-10.1"><tspan dy="1.1em" y="-0.1em" x="0" class="text-outer-tspan"><tspan font-weight="normal" class="text-inner-tspan" font-style="normal">Conditional</tspan><tspan font-weight="normal" class="text-inner-tspan" font-style="normal"> Statements</tspan></tspan></text></g></g></g><g transform="translate(870.3751542243386, 501.39533816837377)" class="mindmap-node section-1"><g><path d="M0 35.8 v-30.799999999999997 q0,-5 5,-5 h21.46875 q5,0 5,5 v35.8 H0 Z" class="node-bkg node-no-border" id="node-16"></path><line y2="40.8" x2="31.46875" y1="40.8" x1="0" class="node-line-1"></line></g><g transform="translate(15.734375, 5)" text-anchor="middle" dominant-baseline="middle" alignment-baseline="middle" dy="1em"><g><rect class="background"></rect><text y="-10.1"><tspan dy="1.1em" y="-0.1em" x="0" class="text-outer-tspan"><tspan font-weight="normal" class="text-inner-tspan" font-style="normal">If</tspan></tspan></text></g></g></g><g transform="translate(743.752833719653, 545.1429973075111)" class="mindmap-node section-1"><g><path d="M0 35.8 v-30.799999999999997 q0,-5 5,-5 h53.5703125 q5,0 5,5 v35.8 H0 Z" class="node-bkg node-no-border" id="node-17"></path><line y2="40.8" x2="63.5703125" y1="40.8" x1="0" class="node-line-1"></line></g><g transform="translate(31.78515625, 5)" text-anchor="middle" dominant-baseline="middle" alignment-baseline="middle" dy="1em"><g><rect class="background"></rect><text y="-10.1"><tspan dy="1.1em" y="-0.1em" x="0" class="text-outer-tspan"><tspan font-weight="normal" class="text-inner-tspan" font-style="normal">If</tspan><tspan font-weight="normal" class="text-inner-tspan" font-style="normal"> Else</tspan></tspan></text></g></g></g><g transform="translate(547.8591613363332, 444.9498715083188)" class="mindmap-node section-1"><g><path d="M0 35.8 v-30.799999999999997 q0,-5 5,-5 h78.34375 q5,0 5,5 v35.8 H0 Z" class="node-bkg node-no-border" id="node-18"></path><line y2="40.8" x2="88.34375" y1="40.8" x1="0" class="node-line-1"></line></g><g transform="translate(44.171875, 5)" text-anchor="middle" dominant-baseline="middle" alignment-baseline="middle" dy="1em"><g><rect class="background"></rect><text y="-10.1"><tspan dy="1.1em" y="-0.1em" x="0" class="text-outer-tspan"><tspan font-weight="normal" class="text-inner-tspan" font-style="normal">Variables</tspan></tspan></text></g></g></g><g transform="translate(355.3773093722248, 482.67063831691246)" class="mindmap-node section-1"><g><path d="M0 35.8 v-30.799999999999997 q0,-5 5,-5 h128.046875 q5,0 5,5 v35.8 H0 Z" class="node-bkg node-no-border" id="node-19"></path><line y2="40.8" x2="138.046875" y1="40.8" x1="0" class="node-line-1"></line></g><g transform="translate(69.0234375, 5)" text-anchor="middle" dominant-baseline="middle" alignment-baseline="middle" dy="1em"><g><rect class="background"></rect><text y="-10.1"><tspan dy="1.1em" y="-0.1em" x="0" class="text-outer-tspan"><tspan font-weight="normal" class="text-inner-tspan" font-style="normal">For</tspan><tspan font-weight="normal" class="text-inner-tspan" font-style="normal"> storing</tspan><tspan font-weight="normal" class="text-inner-tspan" font-style="normal"> data</tspan></tspan></text></g></g></g><g transform="translate(524.1150237955358, 540.2614177026879)" class="mindmap-node section-1"><g><path d="M0 35.8 v-30.799999999999997 q0,-5 5,-5 h141.890625 q5,0 5,5 v35.8 H0 Z" class="node-bkg node-no-border" id="node-20"></path><line y2="40.8" x2="151.890625" y1="40.8" x1="0" class="node-line-1"></line></g><g transform="translate(75.9453125, 5)" text-anchor="middle" dominant-baseline="middle" alignment-baseline="middle" dy="1em"><g><rect class="background"></rect><text y="-10.1"><tspan dy="1.1em" y="-0.1em" x="0" class="text-outer-tspan"><tspan font-weight="normal" class="text-inner-tspan" font-style="normal">For</tspan><tspan font-weight="normal" class="text-inner-tspan" font-style="normal"> keeping</tspan><tspan font-weight="normal" class="text-inner-tspan" font-style="normal"> score</tspan></tspan></text></g></g></g><g transform="translate(382.6423429775891, 261.8409905570137)" class="mindmap-node section-2"><g><path d="M0 35.8 v-30.799999999999997 q0,-5 5,-5 h83.046875 q5,0 5,5 v35.8 H0 Z" class="node-bkg node-no-border" id="node-21"></path><line y2="40.8" x2="93.046875" y1="40.8" x1="0" class="node-line-2"></line></g><g transform="translate(46.5234375, 5)" text-anchor="middle" dominant-baseline="middle" alignment-baseline="middle" dy="1em"><g><rect class="background"></rect><text y="-10.1"><tspan dy="1.1em" y="-0.1em" x="0" class="text-outer-tspan"><tspan font-weight="normal" class="text-inner-tspan" font-style="normal">Advanced</tspan></tspan></text></g></g></g><g transform="translate(298.01130117717116, 177.6736667700642)" class="mindmap-node section-2"><g><path d="M0 35.8 v-30.799999999999997 q0,-5 5,-5 h119.515625 q5,0 5,5 v35.8 H0 Z" class="node-bkg node-no-border" id="node-22"></path><line y2="40.8" x2="129.515625" y1="40.8" x1="0" class="node-line-2"></line></g><g transform="translate(64.7578125, 5)" text-anchor="middle" dominant-baseline="middle" alignment-baseline="middle" dy="1em"><g><rect class="background"></rect><text y="-10.1"><tspan dy="1.1em" y="-0.1em" x="0" class="text-outer-tspan"><tspan font-weight="normal" class="text-inner-tspan" font-style="normal">Custom</tspan><tspan font-weight="normal" class="text-inner-tspan" font-style="normal"> Blocks</tspan></tspan></text></g></g></g><g transform="translate(184.48493546447344, 116.70085631502036)" class="mindmap-node section-2"><g><path d="M0 35.8 v-30.799999999999997 q0,-5 5,-5 h73.046875 q5,0 5,5 v35.8 H0 Z" class="node-bkg node-no-border" id="node-23"></path><line y2="40.8" x2="83.046875" y1="40.8" x1="0" class="node-line-2"></line></g><g transform="translate(41.5234375, 5)" text-anchor="middle" dominant-baseline="middle" alignment-baseline="middle" dy="1em"><g><rect class="background"></rect><text y="-10.1"><tspan dy="1.1em" y="-0.1em" x="0" class="text-outer-tspan"><tspan font-weight="normal" class="text-inner-tspan" font-style="normal">Creating</tspan></tspan></text></g></g></g><g transform="translate(331.1539046556437, 82.51755241433068)" class="mindmap-node section-2"><g><path d="M0 35.8 v-30.799999999999997 q0,-5 5,-5 h52.140625 q5,0 5,5 v35.8 H0 Z" class="node-bkg node-no-border" id="node-24"></path><line y2="40.8" x2="62.140625" y1="40.8" x1="0" class="node-line-2"></line></g><g transform="translate(31.0703125, 5)" text-anchor="middle" dominant-baseline="middle" alignment-baseline="middle" dy="1em"><g><rect class="background"></rect><text y="-10.1"><tspan dy="1.1em" y="-0.1em" x="0" class="text-outer-tspan"><tspan font-weight="normal" class="text-inner-tspan" font-style="normal">Using</tspan></tspan></text></g></g></g><g transform="translate(303.9543774710943, 339.8185869215398)" class="mindmap-node section-2"><g><path d="M0 35.8 v-30.799999999999997 q0,-5 5,-5 h66.40625 q5,0 5,5 v35.8 H0 Z" class="node-bkg node-no-border" id="node-25"></path><line y2="40.8" x2="76.40625" y1="40.8" x1="0" class="node-line-2"></line></g><g transform="translate(38.203125, 5)" text-anchor="middle" dominant-baseline="middle" alignment-baseline="middle" dy="1em"><g><rect class="background"></rect><text y="-10.1"><tspan dy="1.1em" y="-0.1em" x="0" class="text-outer-tspan"><tspan font-weight="normal" class="text-inner-tspan" font-style="normal">Cloning</tspan></tspan></text></g></g></g><g transform="translate(429.73717520828234, 370.00464904431635)" class="mindmap-node section-2"><g><path d="M0 35.8 v-30.799999999999997 q0,-5 5,-5 h124.640625 q5,0 5,5 v35.8 H0 Z" class="node-bkg node-no-border" id="node-26"></path><line y2="40.8" x2="134.640625" y1="40.8" x1="0" class="node-line-2"></line></g><g transform="translate(67.3203125, 5)" text-anchor="middle" dominant-baseline="middle" alignment-baseline="middle" dy="1em"><g><rect class="background"></rect><text y="-10.1"><tspan dy="1.1em" y="-0.1em" x="0" class="text-outer-tspan"><tspan font-weight="normal" class="text-inner-tspan" font-style="normal">Creating</tspan><tspan font-weight="normal" class="text-inner-tspan" font-style="normal"> clones</tspan></tspan></text></g></g></g><g transform="translate(165.72447943230588, 411.1938725565134)" class="mindmap-node section-2"><g><path d="M0 35.8 v-30.799999999999997 q0,-5 5,-5 h135.125 q5,0 5,5 v35.8 H0 Z" class="node-bkg node-no-border" id="node-27"></path><line y2="40.8" x2="145.125" y1="40.8" x1="0" class="node-line-2"></line></g><g transform="translate(72.5625, 5)" text-anchor="middle" dominant-baseline="middle" alignment-baseline="middle" dy="1em"><g><rect class="background"></rect><text y="-10.1"><tspan dy="1.1em" y="-0.1em" x="0" class="text-outer-tspan"><tspan font-weight="normal" class="text-inner-tspan" font-style="normal">Managing</tspan><tspan font-weight="normal" class="text-inner-tspan" font-style="normal"> clones</tspan></tspan></text></g></g></g><g transform="translate(187.49354908634973, 258.26321730564825)" class="mindmap-node section-2"><g><path d="M0 35.8 v-30.799999999999997 q0,-5 5,-5 h125.84375 q5,0 5,5 v35.8 H0 Z" class="node-bkg node-no-border" id="node-28"></path><line y2="40.8" x2="135.84375" y1="40.8" x1="0" class="node-line-2"></line></g><g transform="translate(67.921875, 5)" text-anchor="middle" dominant-baseline="middle" alignment-baseline="middle" dy="1em"><g><rect class="background"></rect><text y="-10.1"><tspan dy="1.1em" y="-0.1em" x="0" class="text-outer-tspan"><tspan font-weight="normal" class="text-inner-tspan" font-style="normal">Cloud</tspan><tspan font-weight="normal" class="text-inner-tspan" font-style="normal"> Variables</tspan></tspan></text></g></g></g><g transform="translate(32.834992499403825, 321.4676751523774)" class="mindmap-node section-2"><g><path d="M0 35.8 v-30.799999999999997 q0,-5 5,-5 h151.109375 q5,0 5,5 v35.8 H0 Z" class="node-bkg node-no-border" id="node-29"></path><line y2="40.8" x2="161.109375" y1="40.8" x1="0" class="node-line-2"></line></g><g transform="translate(80.5546875, 5)" text-anchor="middle" dominant-baseline="middle" alignment-baseline="middle" dy="1em"><g><rect class="background"></rect><text y="-10.1"><tspan dy="1.1em" y="-0.1em" x="0" class="text-outer-tspan"><tspan font-weight="normal" class="text-inner-tspan" font-style="normal">Storing</tspan><tspan font-weight="normal" class="text-inner-tspan" font-style="normal"> data</tspan><tspan font-weight="normal" class="text-inner-tspan" font-style="normal"> online</tspan></tspan></text></g></g></g><g transform="translate(15, 198.61160663832754)" class="mindmap-node section-2"><g><path d="M0 35.8 v-30.799999999999997 q0,-5 5,-5 h147.40625 q5,0 5,5 v35.8 H0 Z" class="node-bkg node-no-border" id="node-30"></path><line y2="40.8" x2="157.40625" y1="40.8" x1="0" class="node-line-2"></line></g><g transform="translate(78.703125, 5)" text-anchor="middle" dominant-baseline="middle" alignment-baseline="middle" dy="1em"><g><rect class="background"></rect><text y="-10.1"><tspan dy="1.1em" y="-0.1em" x="0" class="text-outer-tspan"><tspan font-weight="normal" class="text-inner-tspan" font-style="normal">Multiplayer</tspan><tspan font-weight="normal" class="text-inner-tspan" font-style="normal"> games</tspan></tspan></text></g></g></g></g></svg>